<?xml version="1.0" encoding="utf-8"?>
<!-- Generator: Adobe Illustrator 26.3.1, SVG Export Plug-In . SVG Version: 6.00 Build 0)  -->
<svg version="1.1" id="Ebene_1" xmlns="http://www.w3.org/2000/svg" xmlns:xlink="http://www.w3.org/1999/xlink" x="0px" y="0px"
	 viewBox="0 0 2000 2000" style="enable-background:new 0 0 2000 2000;" xml:space="preserve">
<g>
	<path d="M1046.2,30c0,25.62,0,51.25,0,79.15c26.46,0,51.85,0,78.52,0c0,33.37,0,64.49,0,98.14c-25.17,0-50.39,0-77.01,0
		c0,29.02,0,55.57,0,83.4c49.45,12.59,92.94,36.97,122.38,79.65c16.06,23.28,26.54,50.62,37.8,76.87
		c4.6,10.72,6.15,19.52,20.63,23.2c24.46,6.21,38.74,32.75,36.01,59.02c-2.92,28.14-19.81,46.93-47.78,48.83
		c-13.93,0.94-20.39,6.9-25.57,18.34c-26.53,58.56-39.3,120.65-44.05,184.1c-2.99,39.94-0.56,80.3-0.56,122.44
		c35.03-2.44,64.83,5.96,71.23,47.63c4.36,28.35-7.27,47.66-39.48,65.17c30.89,13.43,44.66,36.13,38.71,68.76
		c-4.91,26.92-23.1,40.09-53.39,45.03c5.04,40.09,7.44,80.46,15.56,119.64c20.97,101.18,57.15,197.3,113.49,283.99
		c38.84,59.76,52.12,118.77,19.47,184.43c-0.5,1.01-0.06,2.49-0.06,3.73c10.36,2.69,21.48,3.65,30.67,8.37
		c17.09,8.78,26.46,24.15,27.04,43.53c0.65,21.79,0.55,43.63-0.04,65.42c-0.55,20.13-9.65,34.92-28.16,44.62
		c-5.1,2.67-9.99,11.01-10.17,16.9c-0.98,32.66-0.47,65.37-0.47,99.64c-220.35,0-439.93,0-661.95,0c0-31.65-0.39-63.5,0.21-95.34
		c0.21-11.15-1.7-18.25-12.94-24.24c-16.72-8.92-25.59-24.86-26.24-44.29c-0.47-14.1-0.26-28.22-0.26-42.34
		c0-49.26,14.33-65.39,62.8-70.97c-5.62-19.43-12.35-38.65-16.63-58.4c-7.37-34.01-1.66-66.94,16.58-96.2
		c47.34-75.97,88.52-155.06,111.7-241.62c14.84-55.41,22.37-112.8,32.65-169.39c1.56-8.6,0.22-17.72,0.22-27.76
		c-31.59-2.72-55.91-14.46-60.88-48.13c-4.52-30.65,6.1-48.11,39.25-65.68c-35.05-14.23-47.43-40.97-37.31-74.22
		c11.8-38.78,45.94-39.52,83.27-37.64c0-21.89,0.48-42.72-0.08-63.52c-2.13-78.65-13.67-155.58-41.7-229.61
		c-7.51-19.83-16.26-32.86-41.54-33.21c-29.34-0.41-47.89-23.35-48.97-51.78c-1.14-29.97,15.64-52.05,45.44-57.31
		c11.17-1.97,15.54-6.27,18.46-17.47c19.5-74.69,65.6-126.29,138.15-153.16c11.4-4.22,16.41-8.98,15.81-21.58
		c-1.04-21.69-0.29-43.47-0.29-67.2c-26.21,0-50.97,0-77.25,0c0-33.56,0-65.15,0-98.87c25.06,0,49.76,0,76.62,0
		c0-28.06,0-54.07,0-80.08C979.46,30,1012.83,30,1046.2,30z"/>
</g>
</svg>
