<?xml version="1.0" encoding="utf-8"?>
<!-- Generator: Adobe Illustrator 26.3.1, SVG Export Plug-In . SVG Version: 6.00 Build 0)  -->
<svg version="1.1" id="Ebene_1" xmlns="http://www.w3.org/2000/svg" xmlns:xlink="http://www.w3.org/1999/xlink" x="0px" y="0px"
	 viewBox="0 0 2000 2000" style="enable-background:new 0 0 2000 2000;" xml:space="preserve">
<g>
	<path d="M481.19,2000c0-34.9,0-69.79,0-104.35c-45.02-17.49-52.49-28.55-52.51-76.81c-0.01-29.15-0.15-58.31,0.04-87.46
		c0.27-43.39,22.41-65.17,66.3-65.51c7.74-0.06,15.48-0.01,26.1-0.01c-38.01-74.31-45.51-148.06-5.43-223.74
		c-27.09-17.24-42.6-41.51-29.62-73.22c17.46-42.65,57.11-37.64,94.77-36.95c0-31.04,0-61.08,0-92.9c-46.32,0-92.69,0-142.01,0
		c-6.5-38.51-13.85-75.71-18.91-113.21c-18.72-138.61-21.94-277.57-4.54-416.52c19.47-155.52,64.61-302.22,155.51-432.05
		c86.95-124.2,203.61-210.14,344.53-264.21c1.64-0.63,3.64-0.35,7.71-0.66c0,36.48,0,72.34,0,110.42c29.81,0,57.67,2.11,85.12-0.37
		c111.49-10.1,185.84,46.12,242.3,134.07c28.9,45.02,58.27,89.53,106.6,115.88c26.57,14.49,55.11,25.4,82.86,37.71
		c54.91,24.37,103.7,55.97,132.56,111.3c43,82.45,12.38,190.89-66.56,235.92c-88.07,50.24-194.55,26.08-245.69-56.66
		c-7.4-11.98-14.79-16.85-28.96-16.72c-74.51,0.7-149.02,0.31-223.54,0.36c-5.65,0-11.3,0.53-21.64,1.04
		c204.94,140.18,360.38,314.46,438.72,552.67c-54.69,0-106.41,0-159.8,0c0,31.15,0,61.1,0,93.73c13.34,0,26.71-0.08,40.08,0.02
		c30.36,0.21,46.85,10.41,54.94,33.85c9.67,28.01,2.69,53.26-19.7,71.33c-1.49,1.2-2.88,2.54-5.46,4.82
		c38.2,73.4,36.17,147.43-1.89,224.08c9.63,0,16.35-0.11,23.06,0.02c31.61,0.61,51.65,16.08,53.23,47.3
		c2.22,43.92,1.92,88.09,0.02,132.04c-1.13,26.22-19.46,41.05-45.53,47.81c0,35.85,0,71.41,0,106.97
		C1069.61,2000,775.4,2000,481.19,2000z"/>
</g>
</svg>
