<?xml version="1.0" encoding="utf-8"?>
<!-- Generator: Adobe Illustrator 26.3.1, SVG Export Plug-In . SVG Version: 6.00 Build 0)  -->
<svg version="1.1" id="Ebene_1" xmlns="http://www.w3.org/2000/svg" xmlns:xlink="http://www.w3.org/1999/xlink" x="0px" y="0px"
	 viewBox="0 0 2000 2000" style="enable-background:new 0 0 2000 2000;" xml:space="preserve">
<g>
	<path d="M1034.3,402.67c24.12,5.92,48.99,9.76,72.25,18.08c212.48,75.98,276.09,338.94,122.32,503.71c-2.42,2.59-4.61,5.4-8,9.39
		c3.51,0.95,5.72,1.77,7.99,2.13c23.77,3.76,36.86,19.27,37.18,44.17c0.33,25.17-12.18,42.94-35.11,45.83
		c-10.02,1.26-12.71,5.82-15.16,13.75c-19.46,63.01-16.12,126.43-2.25,189.61c25.9,117.98,76.34,225.23,148.59,321.51
		c42.39,56.48,48.62,112.75,12.83,173.6c-0.78,1.33-1.21,2.87-1.69,4.35c-0.13,0.41,0.16,0.96,0.68,3.46
		c9.63,0,19.8-0.38,29.92,0.08c22.12,1.01,38.68,16.29,39.28,38.5c0.92,34.31,0.92,68.67-0.01,102.98
		c-0.61,22.43-11.23,35.04-32.74,39.46c-9.7,1.99-9.71,7.15-9.68,14.24c0.1,23.85,0.04,47.7,0.04,72.48c-265.81,0-530.31,0-796.67,0
		c0-28.29,0-56.09,0-83.37c-39.81-9.97-47.84-20.39-47.84-60.21c0-26.01-0.23-52.03,0.08-78.04c0.34-28.05,17.72-45.41,45.86-46.16
		c10.87-0.29,21.76-0.05,34.22-0.05c-6.81-15.3-14.4-28.89-19.03-43.42c-14.17-44.48-8.16-86.26,20.12-124.03
		c69.91-93.35,121.98-195.55,151.64-308.56c16.24-61.86,23.9-124.56,11.12-188.3c-0.92-4.57-2.01-9.11-3.1-13.64
		c-3.77-15.58-6.6-28.56-29.05-29.83c-23.35-1.33-35.82-23.28-34.05-48.01c1.56-21.71,17.78-37.93,40.39-40.32
		c3.92-0.41,7.85-0.64,14.18-1.14c-9.9-11.63-18.55-21.04-26.39-31.1C620.9,722.41,714.34,460.89,938.76,409.68
		c11-2.51,22.07-4.68,33.11-7.01C992.67,402.67,1013.48,402.67,1034.3,402.67z"/>
</g>
</svg>
