<?xml version="1.0" encoding="utf-8"?>
<!-- Generator: Adobe Illustrator 26.3.1, SVG Export Plug-In . SVG Version: 6.00 Build 0)  -->
<svg version="1.1" id="Ebene_1" xmlns="http://www.w3.org/2000/svg" xmlns:xlink="http://www.w3.org/1999/xlink" x="0px" y="0px"
	 viewBox="0 0 2000 2000" style="enable-background:new 0 0 2000 2000;" xml:space="preserve">
<style type="text/css">
	.st0{fill:#000000;}
</style>
<g>
	<path class="st0" d="M1022.81,29.33c8.13,3.43,16.4,6.56,24.36,10.33c54.22,25.69,77.12,88.74,52.05,143.1
		c-2.12,4.59-4.62,8.99-4.59,8.93c27.7,25.35,57.31,46.63,79,74.15c17.62,22.36,26.63,51.86,37.61,78.94
		c3.92,9.69,6.86,15,18.21,14.46c17.28-0.81,34.67-0.73,51.95,0.25c28.95,1.64,47.89,21.89,49.33,51.4
		c1.56,31.96-15.48,56.09-44.63,59.69c-12.08,1.49-19.29,6.01-26.19,15.57c-39.22,54.28-53.48,117.25-63.4,181.49
		c-10.7,69.3-13.26,139.01-8.78,209.14c1.22,19.09,5.03,27.39,25.94,25.59c44.17-3.81,64.88,35.75,55.01,73.96
		c-4.85,18.78-18.4,30.31-39.43,37.26c35.43,14.74,48.25,40.73,39.46,74.69c-9.14,35.31-37.76,41.74-71.31,38.28
		c-1.27,45.86,4.99,88.65,16.32,130.73c28.48,105.77,74.68,203.2,141.21,290.29c40.7,53.27,46.61,107.82,13.78,166.41
		c-1.17,2.08-1.69,4.52-2.49,6.71c1.83,1.07,2.87,2.22,3.8,2.13c47.39-4.33,69.56,23.91,66.89,69.42
		c-0.94,15.98-0.35,32.06-1.45,48.03c-1.46,21.23-12.91,36.56-32.6,43.42c-11.09,3.86-12.96,9.75-12.83,19.77
		c0.4,31.89,0.15,63.78,0.15,96.52c-261.09,0-519.99,0-780.91,0c0-31.62-0.29-62.26,0.15-92.89c0.17-11.69-0.81-19.7-14.76-24.38
		c-18.09-6.08-29.14-21.03-30.31-40.76c-1.25-21.1-1.8-42.31-1.21-63.43c0.93-33.57,22.34-54.02,56.35-55.25
		c5.65-0.2,11.31-0.03,20.28-0.03c-4.12-8.52-7.09-14.55-9.96-20.63c-22.14-46.96-23.53-93.7,7.8-136.62
		c54.77-75.01,101.02-154.38,132.36-242.01c21.03-58.8,36.6-118.81,37.15-181.83c0.04-4.36,0-8.72,0-14.71
		c-35.61,0.75-68.22-3.61-77.26-44.49c-6.75-30.54,4.5-49.69,38.57-69c-31.38-12.65-45.2-35.73-38.57-67.74
		c9.59-46.3,48.03-44.42,84.24-45.02c9.16-121.17,4.15-238.9-36.85-352.8c-6.03-16.75-14.74-32.72-23.75-48.15
		c-9.59-16.44-19.68-29.82-43.74-30.5c-29.87-0.84-49.39-28.04-47.93-57.14c1.49-29.65,22.45-51.27,53.04-53.02
		c20.47-1.17,41.09,0.23,61.55-1.11c5.18-0.34,13.33-5.92,14.41-10.45c16.09-67.25,55.31-115.87,116.15-147.74
		c1.62-0.85,2.83-2.48,4.77-4.24c-21.03-38.08-23.43-76.53-0.93-114.98c16.62-28.39,43.45-42.36,73.48-51.76
		C997.14,29.33,1009.98,29.33,1022.81,29.33z"/>
</g>
</svg>
