<?xml version="1.0" encoding="utf-8"?>
<!-- Generator: Adobe Illustrator 26.3.1, SVG Export Plug-In . SVG Version: 6.00 Build 0)  -->
<svg version="1.1" id="Ebene_1" xmlns="http://www.w3.org/2000/svg" xmlns:xlink="http://www.w3.org/1999/xlink" x="0px" y="0px"
	 viewBox="0 0 2000 2000" style="enable-background:new 0 0 2000 2000;" xml:space="preserve">
<style type="text/css">
	.st0{fill:#FFFFFF;}
</style>
<g>
	<path class="st0" d="M1374.54,84.19c-0.32,7.46-0.93,14.92-0.93,22.38c-0.05,162.28-0.04,324.55-0.04,486.83
		c0,7.38,0,14.75,0,25.03c-22.66,0-43.74,1.24-64.59-0.39c-16.81-1.32-23.61,4.34-28,20.72c-24.07,89.92-27.35,181.19-18.12,273
		c15.33,152.66,54.88,298.85,122.92,436.74c12.1,24.52,26.23,48.26,41.49,70.96c50.06,74.5,52.73,152.21,18.36,233.09
		c-2.18,5.13-4.36,10.25-6.48,15.41c-0.2,0.5,0.08,1.2,0.14,1.81c35.44,14.72,43.47,27.06,43.52,67.02c0.03,29.33,0.04,58.67,0,88
		c-0.07,44.45-12.99,60.37-57.76,69.7c0,34.42,0,69.2,0,105.5c-283.21,0-564.91,0-848.75,0c0-34.8,0-70.01,0-104.5
		c-51.12-16.64-59.14-27.85-59.14-80.35c0-25.59-0.01-51.18,0-76.77c0.01-41.38,7.52-52.64,43.94-67.18
		c-7.72-27.37-17.55-54.21-22.64-81.91c-10.44-56.8-0.36-110.68,31.65-159.25c87.83-133.25,133.03-282.06,160.33-437.37
		c14.64-83.32,20.72-167.33,10.75-251.57c-4.45-37.58-13.52-74.67-21.77-111.69c-1.02-4.56-9.86-10.23-15.3-10.47
		c-24.82-1.12-49.71-0.49-77.71-0.49c0-8.83,0-16,0-23.17c0-162.9,0.01-325.8-0.04-488.7c0-7.46-0.6-14.92-0.93-22.38
		c37.46,0,74.91,0,112.36,0c0,35.77,0,71.54,0,107.64c34.11,0,67.21,0,101.13,0c0-36.86,0-72.25,0-107.64c36.21,0,72.41,0,108.62,0
		c0,35.88,0,71.77,0,107.63c36.45,0,69.67,0,104.87,0c0-36.86,0-72.24,0-107.63c38.7,0,77.41,0,116.11,0c0,35.78,0,71.56,0,107.6
		c34.44,0,67.51,0,101.13,0c0-36.87,0-72.24,0-107.6C1304.62,84.19,1339.58,84.19,1374.54,84.19z"/>
</g>
</svg>
